<svg xmlns="http://www.w3.org/2000/svg" x="0px" y="0px" viewBox="6.39242691040039 6.405980529785156 35.21513473510742 35.188038940429685" enable-background="new 0 0 48 48">
<g>
	
		<path fill="#070735FF" stroke="#E0EF00FF" stroke-width="1.12" stroke-linecap="round" stroke-linejoin="round" stroke-miterlimit="10" d="   M9.8286,21.14656c-0.02702-0.35546-0.05071-0.71214-0.05071-1.0751c0-7.23797,5.48142-13.10548,12.24311-13.10548   s12.24311,5.86752,12.24311,13.10548c0,3.41109-1.22309,6.51131-3.21922,8.84176c-0.34933,0.40784-0.56323,0.91393-0.56323,1.45093   l-0.00002,6.90139c-0.00001,2.08128-1.68722,3.76848-3.76849,3.76848h-5.87362c-1.26101,0-2.28326-1.02225-2.28326-2.28326v-1.6815   c0-0.73181-0.59325-1.32505-1.32505-1.32505h-4.43578c-1.01517,0-1.8724-0.75395-2.00202-1.76081l-0.60148-4.6723   c0-0.49738-0.35003-0.92606-0.83737-1.02551l-1.21377-0.2477c-0.98942-0.20192-1.4926-1.31163-0.99255-2.18893L9.8286,21.14656z"/>
	<g>
		<path fill="none" stroke="#E0EF00FF" stroke-width="1.12" stroke-linecap="round" stroke-linejoin="round" stroke-miterlimit="10" d="    M20.72016,11.56613c-1.30852,0-2.38943,1.12803-2.60738,2.60902c-0.21513-0.09055-0.44319-0.1491-0.68443-0.1491    c-1.13738,0-2.05948,1.09584-2.05948,2.44766c0,0.02162,0.00491,0.04166,0.00537,0.06316    c-0.84039,0.23199-1.46826,1.12287-1.46826,2.19222v0.00006c0,0.75926,0.5179,1.37478,1.15675,1.37478h14.75441    c0.63885,0,1.15675-0.61551,1.15675-1.37478V18.7291c0-1.06936-0.62787-1.96023-1.46826-2.19222    c0.00046-0.0215,0.00537-0.04154,0.00537-0.06316c0-1.35182-0.92205-2.44766-2.05948-2.44766    c-0.17492,0-0.34191,0.03377-0.50405,0.08253c-0.23971-1.44881-1.31235-2.54246-2.60171-2.54246    c-0.70313,0-1.338,0.33086-1.81282,0.86135C22.05812,11.89699,21.4233,11.56613,20.72016,11.56613z"/>
		<path fill="none" stroke="#E0EF00FF" stroke-width="1.12" stroke-linecap="round" stroke-linejoin="round" stroke-miterlimit="10" d="    M19.51474,15.82429c-0.77904,0-1.41057-0.75057-1.41057-1.67644"/>
		<path fill="none" stroke="#E0EF00FF" stroke-width="1.12" stroke-linecap="round" stroke-linejoin="round" stroke-miterlimit="10" d="    M19.24491,16.83958c0-0.92587,0.63153-1.67644,1.41057-1.67644"/>
		<path fill="none" stroke="#E0EF00FF" stroke-width="1.12" stroke-linecap="round" stroke-linejoin="round" stroke-miterlimit="10" d="    M25.82142,15.97782c-0.1118-0.91629,0.42257-1.7668,1.19354-1.89967"/>
	</g>
</g>
<g>
	
		<circle fill="#070735FF" stroke="#C3E7EFFF" stroke-width="1.12" stroke-linecap="round" stroke-linejoin="round" stroke-miterlimit="10" cx="31.74375" cy="19.84585" r="9.30381"/>
	<path fill="none" stroke="#C3E7EFFF" stroke-width="1.12" stroke-linecap="round" stroke-linejoin="round" stroke-miterlimit="10" d="   M32.28602,17.87317v-2.5677c0-0.49687-0.63967-0.69838-0.92446-0.29122l-3.32314,4.75105   c-0.19111,0.27322-0.0717,0.65335,0.24131,0.76822l2.98657,1.09599c0.20007,0.07342,0.33306,0.26388,0.33306,0.477v2.27976   c0,0.50479,0.65637,0.7007,0.93307,0.27851l2.9253-4.46361c0.17381-0.26521,0.06492-0.62307-0.22715-0.74652l-2.63428-1.11346   C32.40823,18.26169,32.28602,18.07735,32.28602,17.87317z"/>
</g>
</svg>